<svg width="875" height="447" viewBox="0 0 875 447" fill="none" xmlns="http://www.w3.org/2000/svg">
<g clip-path="url(#clip0_33_41)">
<path d="M836.161 247.126L833.42 268.94L826.618 323.121H689.956C691.023 310.977 692.482 293.498 694.04 274.629C694.194 272.744 694.355 270.848 694.509 268.94C698.417 221.508 702.694 167.834 702.694 167.834L720.66 171.179L755.519 177.657L769.723 180.296L807.76 187.375C826.725 190.896 839.77 218.34 836.161 247.126Z" fill="#F2F2F2"/>
<path d="M732.789 80.062L749.595 109.454L717.294 132.333L703.515 96.204L732.789 80.062Z" fill="#FFB6B6"/>
<path d="M711.394 107.868C734.388 107.868 753.028 89.239 753.028 66.2583C753.028 43.2777 734.388 24.6482 711.394 24.6482C688.4 24.6482 669.76 43.2777 669.76 66.2583C669.76 89.239 688.4 107.868 711.394 107.868Z" fill="#FFB6B6"/>
<path d="M708.405 75.5606C705.099 70.5322 706.396 67.9021 703.629 66.0542C703.629 66.0541 702.515 65.3105 694.544 64.8866C692.76 52.0498 690.532 50.4931 690.532 50.493C687.964 48.6989 684.154 49.2818 681.784 50.3791C676.77 52.7 677.351 57.7131 673.976 58.6725C669.313 59.9977 660.829 52.5268 659.993 43.9742C659.311 36.9977 663.808 30.2218 665.592 30.5802C667.361 30.9356 671.595 25.5328 673.882 25.6162C675.443 25.6731 681.823 22.9018 683.539 23.1184C685.413 23.3551 691.593 26.5781 691.85 25.8418C693.64 20.7247 693.114 19.305 694.632 17.8411C697.323 15.2471 701.724 17.0535 708.629 18.0233C722.837 20.0186 725.316 15.3367 732.597 18.5101C736.275 20.1132 739.353 24.4364 745.358 33.0175C753.756 45.0181 757.954 51.0184 757.981 58.0168C758.009 65.154 754.551 64.701 753.032 75.267C751.341 87.0287 754.934 92.4068 751.009 96.228C747.975 99.1813 741.81 99.8823 738.57 97.2904C733.024 92.8528 740.282 82.1448 734.145 74.3216C730.377 69.5194 722.801 67.3826 719.33 69.7564C715.405 72.4405 717.567 80.3186 714.808 81.0657C712.444 81.7055 708.981 76.4369 708.405 75.5606Z" fill="#2F2E41"/>
<path d="M805.388 239.444C804.227 259.289 799.615 265.554 797.999 288.99C797.646 294.135 797.434 300.108 797.434 307.23C797.434 309.046 797.444 310.802 797.444 312.517C797.444 316.169 797.374 319.62 796.949 323.12C796.627 325.915 796.072 328.73 795.153 331.696H705.484C705.474 331.675 705.474 331.655 705.463 331.635C704.938 329.355 704.605 327.176 704.353 325.088C704.272 324.422 704.201 323.766 704.141 323.12C704.06 322.363 703.989 321.617 703.919 320.881C703.646 317.945 703.374 315.17 702.727 312.517C701.86 308.854 700.284 305.404 697.054 302.075C695.732 300.713 694.41 299.654 693.118 298.726C692.865 298.554 692.623 298.382 692.371 298.211C688.797 295.759 685.416 293.994 682.488 288.99C682.438 288.919 682.397 288.839 682.357 288.768C681.852 287.89 680.54 285.59 679.591 282.523C678.591 279.335 677.986 275.33 679.076 271.234C681.671 261.528 691.28 260.56 699.134 250.754C699.982 249.694 700.82 248.524 701.617 247.222C705.17 241.451 706.129 236.367 707.26 230.324C707.441 229.345 707.603 228.376 707.734 227.439C707.836 226.732 707.926 226.036 707.997 225.35C708.622 219.589 708.32 214.626 707.583 210.187C705.181 195.649 698.094 186.65 703.101 173.605C704.676 169.509 706.907 166.432 709.158 163.799C713.922 158.219 718.818 154.598 717.971 147.395C717.112 140.13 711.6 139.131 710.985 132.786C710.672 129.578 711.722 126.198 713.69 122.879V122.869C719.989 112.184 735.717 102.348 745.71 102.661C747.557 102.711 749.192 103.125 750.555 103.922C755.492 106.827 753.432 113.173 760.993 122.072C766.615 128.68 772.975 131.323 775.388 132.574C784.947 137.558 792.72 152.257 797.999 171.052C798.039 171.194 798.08 171.335 798.12 171.486C801.381 183.26 803.683 196.627 804.824 210.187C805.308 215.927 805.59 221.698 805.651 227.408C805.702 231.968 805.6 235.923 805.388 239.444Z" fill="#3FC2FF"/>
<path d="M738.24 307.432L736.413 312.517L735.262 315.705L732.597 323.12L729.508 331.696H709.652L712.983 323.12L714.528 319.125L717.092 312.517L721.392 301.419L738.24 307.432Z" fill="#FFB6B6"/>
<path d="M798.312 169.317C798.262 169.973 798.191 170.699 798.12 171.486C797.334 179.497 795.475 193.833 792.76 210.187C791.327 218.812 789.651 228.004 787.763 237.134C783.706 256.837 778.659 276.238 772.955 288.99C771.936 291.29 770.886 293.369 769.815 295.205C768.998 296.607 768.139 297.989 767.241 299.351C764.334 303.82 761.073 308.058 757.692 312.013C757.561 312.184 757.409 312.346 757.258 312.517C756.713 313.162 756.147 313.798 755.582 314.434C752.816 317.551 749.99 320.457 747.254 323.12C743.923 326.369 740.713 329.244 737.836 331.696H705.594L705.463 331.635L700.82 329.577C700.82 329.577 702.142 328.023 704.353 325.088C704.807 324.492 705.291 323.836 705.817 323.12C706.462 322.242 707.159 321.274 707.906 320.225C709.46 318.025 711.227 315.443 713.124 312.517C716.799 306.857 720.988 299.896 725.218 291.835C725.703 290.897 726.197 289.948 726.692 288.99C726.702 288.96 726.722 288.929 726.732 288.899C727.57 287.265 728.398 285.58 729.225 283.865C736.241 269.276 738.25 257.17 738.826 253.246C739.633 247.697 740.753 239.938 740.451 231.403C740.248 225.774 739.431 219.821 737.483 213.909V213.9C737.079 212.659 736.625 211.418 736.11 210.187C735.191 207.977 734.101 205.798 732.809 203.649C727.106 194.186 722.473 193.792 718.788 183.482C717.698 180.425 715.224 173.524 715.981 166.24V166.23C716.073 165.332 716.224 164.424 716.426 163.516V163.506C716.476 163.254 716.547 162.992 716.618 162.739C717.193 160.51 718.142 158.3 719.585 156.201C722.402 152.126 726.247 149.704 729.69 148.262L729.7 148.252C733.677 146.597 737.11 146.244 737.776 146.184C752.523 144.872 763.961 157.261 770.21 164.031C772.622 166.643 774.833 168.833 776.852 170.618C792.568 184.642 796.879 175.683 797.999 171.052C798.17 170.336 798.262 169.721 798.312 169.317Z" fill="#3FC2FF"/>
<path d="M798.363 168.793C798.363 168.843 798.353 169.014 798.312 169.297C798.332 169.145 798.343 168.994 798.353 168.853C798.353 168.823 798.353 168.803 798.363 168.793Z" fill="#3FC2FF"/>
<path d="M718.192 381.675H177.078C172.05 381.675 167.952 385.761 167.952 390.786C167.952 395.82 172.05 399.906 177.078 399.906H718.192C723.219 399.906 727.308 395.82 727.308 390.786C727.308 385.761 723.219 381.675 718.192 381.675Z" fill="#E6E6E6"/>
<path d="M598.109 428.77H297.151C292.124 428.77 288.036 432.856 288.036 437.88C288.036 442.904 292.124 447 297.151 447H598.109C603.136 447 607.234 442.904 607.234 437.88C607.234 432.856 603.136 428.77 598.109 428.77Z" fill="#E6E6E6"/>
<path d="M237.29 81.9961L271.393 67.6522L286.021 97.6213L250.184 112.24L237.29 81.9961Z" fill="#FFB6B6"/>
<path opacity="0.1" d="M237.29 81.9961L271.393 67.6522L286.021 97.6213L250.184 112.24L237.29 81.9961Z" fill="black"/>
<path d="M242.139 70.576L275.782 109.317C275.782 109.317 252.378 183.143 228.974 189.721C205.57 196.3 162.419 228.462 162.419 228.462L108.298 193.376L134.627 154.636C134.627 154.636 198.256 67.6522 215.078 67.6522C231.899 67.6522 242.139 70.576 242.139 70.576Z" fill="#3FC2FF"/>
<path d="M196.684 323.12H118.369L113.418 316.505L93.2025 289.497L88.551 283.284C88.551 283.284 70.9982 251.122 74.655 221.883C78.3119 192.645 116.343 186.067 116.343 186.067H117.908L164.467 226.956L161.688 265.01L176.432 289.497L196.684 323.12Z" fill="#2F2E41"/>
<path d="M134.408 323.12H113.418V292.055L134.408 323.12Z" fill="#2F2E41"/>
<path d="M587.14 275.959L584.529 289.497L578.049 323.12H447.873C448.889 315.584 450.279 304.737 451.763 293.027C451.91 291.858 452.063 290.681 452.21 289.497C455.932 260.061 460.006 226.751 460.006 226.751L477.12 228.827L510.324 232.848L523.854 234.485L560.086 238.878C578.151 241.064 590.577 258.095 587.14 275.959Z" fill="#F2F2F2"/>
<path d="M771.364 323.12H700.758C701.833 321.856 702.44 321.125 702.44 321.125L723.606 317.631L767.217 310.438C767.217 310.438 769.207 315.577 771.364 323.12Z" fill="#2F2E41"/>
<path d="M471.872 96.6162L502.577 140.016L449.017 141.615L443.267 100.829L471.872 96.6162Z" fill="#A0616A"/>
<path opacity="0.1" d="M471.872 96.6162L502.577 140.016L449.017 141.615L443.267 100.829L471.872 96.6162Z" fill="black"/>
<path d="M320.445 186.537C316.505 175.178 307.448 168.003 300.215 170.51C292.982 173.017 290.315 184.256 294.257 195.619C295.77 200.179 298.354 204.311 301.792 207.669L319.093 255.587L341.42 246.994L321.993 200.667C322.614 195.901 322.083 191.056 320.445 186.537Z" fill="#A0616A"/>
<path d="M528.292 164.423L528.25 208.653L524.132 224.99L515.663 258.592L509.498 289.497L504.905 312.522L503.266 320.745C502.03 321.571 500.802 322.36 499.573 323.12H392.596C386.518 319.473 383.117 316.637 383.117 316.637C383.117 316.637 384.799 315.058 386.723 312.522C389.97 308.238 393.898 301.221 391.491 294.518C390.987 293.115 390.855 291.404 391.009 289.497C391.989 276.91 405.197 255.624 405.197 255.624L402.462 224.032L401.262 210.188L409.719 142.684L437.285 126.669L442.044 126.209L489.019 123.672L508.435 124.791L509.32 125.032L528.292 164.423Z" fill="#CCCCCC"/>
<path d="M530.378 323.12H506.974L505.943 312.522L505.921 312.31L512.547 311.856L529.786 310.68L530.086 317.024L530.32 321.893L530.378 323.12Z" fill="#FFB6B6"/>
<path d="M536.14 175.117L545.971 232.767L537.948 289.497L536.697 298.327L534.489 313.918L533.808 318.713L533.83 319.232L533.999 323.12H506.207L505.183 312.522L505.095 311.571L503.003 289.862L502.967 289.497L498.527 243.461L507.23 210.188L507.874 207.739V207.732L511.661 150.762L508.728 124.871L508.699 124.63C508.757 124.667 508.809 124.703 508.867 124.74C509.021 124.835 509.174 124.93 509.32 125.032C526.405 135.865 536.586 154.87 536.14 175.117Z" fill="#CCCCCC"/>
<path d="M419.676 153.731L408.989 142.683C408.989 142.683 386.11 152.992 384.97 158.711C383.829 164.43 343.434 248.425 343.434 248.425L325.86 201.514L302.984 216.779C302.984 216.779 321.34 289.611 338.506 293.03C355.673 296.45 413.207 206.826 413.207 206.826L419.676 153.731Z" fill="#CCCCCC"/>
<path d="M853.63 288.99H21.3601C9.57991 288.99 0 298.574 0 310.348C0 322.121 9.5799 331.696 21.3601 331.696H853.63C865.41 331.696 875 322.122 875 310.348C875 298.574 865.41 288.99 853.63 288.99Z" fill="#E6E6E6"/>
<path d="M523.421 223.91L521.803 299.376C521.647 306.681 515.676 312.522 508.365 312.522H369.462C362.324 312.522 356.431 306.945 356.041 299.821L351.913 224.355C351.492 216.659 357.623 210.188 365.334 210.188H509.983C517.519 210.188 523.583 216.379 523.421 223.91Z" fill="#3F3D56"/>
<path d="M299.185 100.213C317.539 100.213 332.418 85.3425 332.418 66.9989C332.418 48.6553 317.539 33.7849 299.185 33.7849C280.831 33.7849 265.952 48.6553 265.952 66.9989C265.952 85.3425 280.831 100.213 299.185 100.213Z" fill="#FFB6B6"/>
<path d="M243.601 153.905L247.258 193.376L272.125 293.517L250.642 301.042L214.347 191.914L209.333 148.057L243.601 153.905Z" fill="#FFB6B6"/>
<path d="M233.71 223.91L232.092 299.376C231.935 306.681 225.965 312.522 218.653 312.522H79.7507C72.6124 312.522 66.7192 306.945 66.3296 299.821L62.2016 224.355C61.7806 216.659 67.9111 210.188 75.6228 210.188H220.271C227.808 210.188 233.871 216.379 233.71 223.91Z" fill="#3F3D56"/>
<path d="M276.084 313.032C290.579 313.032 302.33 307.837 302.33 301.43C302.33 295.022 290.579 289.828 276.084 289.828C261.589 289.828 249.839 295.022 249.839 301.43C249.839 307.837 261.589 313.032 276.084 313.032Z" fill="#FFB6B6"/>
<path d="M192.04 159.939L207.033 80.0784C207.033 80.0784 248.721 74.2308 250.184 88.1189C251.646 102.007 249.138 169.88 249.138 169.88L192.04 159.939Z" fill="#3FC2FF"/>
<path d="M285.77 72.2213C285.77 72.2213 306.328 64.8884 314.999 60.943C323.671 56.9976 340.899 84.5168 341.282 69.9829C341.665 55.4491 335.713 49.3543 335.713 49.3543C335.713 49.3543 334.226 17.5595 302.175 21.5346C302.175 21.5346 309.225 5.62734 286.084 3.16757C262.943 0.707798 226.941 56.5582 230.165 64.9048C233.389 73.2513 237.255 80.1518 228.107 89.0761C218.96 98.0004 201.831 148.367 214.863 161.92C227.896 175.473 228.751 181.355 219.821 189.786C210.892 198.218 189.786 216.552 212.607 219.735C235.427 222.918 210.519 220.541 227.532 205.584C244.545 190.628 269.371 191.239 260.101 167.242C250.832 143.246 266.937 108.86 264.921 103.643C262.906 98.4264 269.436 65.3007 269.436 65.3007C269.436 65.3007 284.634 63.0692 285.77 72.2213Z" fill="#2F2E41"/>
<path d="M455.454 112.325C475.434 112.325 491.63 96.1372 491.63 76.1689C491.63 56.2006 475.434 40.013 455.454 40.013C435.474 40.013 419.278 56.2006 419.278 76.1689C419.278 96.1372 435.474 112.325 455.454 112.325Z" fill="#A0616A"/>
<path d="M458.341 27.5599C457.294 28.1706 455.892 27.2466 455.557 26.0826C455.221 24.9185 455.612 23.6826 456 22.5349L457.952 16.7569C459.336 12.659 460.805 8.41794 463.803 5.29892C468.328 0.591262 475.52 -0.606343 481.994 0.26128C490.308 1.37548 498.51 5.87471 502.376 13.3148C506.242 20.7548 504.596 31.1364 497.611 35.7783C507.566 47.182 511.036 59.891 510.488 75.015C509.94 90.139 493.45 104.058 482.695 114.712C480.294 113.257 478.11 106.439 479.431 103.961C480.752 101.484 478.86 98.6145 480.495 96.3329C482.131 94.0512 483.499 97.6843 481.846 95.4156C480.802 93.984 484.875 90.6905 483.324 89.8336C475.822 85.6892 473.327 76.3438 468.615 69.1874C462.932 60.5553 453.205 54.7096 442.912 53.7398C437.242 53.2056 431.253 54.1732 426.605 57.4632C421.957 60.7532 418.949 66.6324 420.026 72.2217C417.235 69.3892 415.846 65.2382 416.37 61.2973C416.894 57.3564 419.32 53.7122 422.754 51.7067C420.666 44.8045 422.455 36.8651 427.302 31.5239C432.149 26.1828 451.812 27.0925 458.889 28.4982L458.341 27.5599Z" fill="#2F2E41"/>
<path d="M459.44 53.9493C468.813 54.9605 475.58 63.0747 481.294 70.5681C484.588 74.8871 488.038 79.6567 487.956 85.0866C487.872 90.5762 484.199 95.2849 482.444 100.487C479.575 108.991 482.371 119.109 489.201 124.935C482.453 126.215 475.158 121.158 473.993 114.393C472.637 106.518 478.61 98.9172 477.903 90.9575C477.279 83.9448 471.75 78.5478 467.049 73.3044C462.348 68.0611 457.934 61.1033 460.096 54.4031L459.44 53.9493Z" fill="#2F2E41"/>
<path d="M599.559 293.56C590.276 298.837 585.475 307.902 588.836 313.807C592.198 319.711 602.447 320.218 611.733 314.937C615.472 312.879 618.663 309.956 621.039 306.412L660.091 283.555L648.969 265.468L611.651 289.921C607.387 290.151 603.241 291.399 599.559 293.56Z" fill="#FFB6B6"/>
<path d="M731.784 125.949C730.617 125.487 720.377 121.611 711.029 126.728C700.29 132.606 698.631 146.024 698.049 150.73C696.706 161.602 700.665 164.039 701.5 175.045C703.064 195.636 707.187 172.146 700.603 181.545C698.323 184.798 675.046 235.215 662.209 245.09C637.242 264.296 621.387 277.822 621.387 277.822L639.487 297.473C639.487 297.473 668.088 289.856 693.368 273.451C719.298 256.623 732.264 248.209 742.295 231.749C743.159 230.332 763.828 195.252 752.727 156.462C750.195 147.615 745.556 131.403 731.784 125.949Z" fill="#3FC2FF"/>
<path d="M825.246 223.91L823.628 299.376C823.472 306.681 817.501 312.522 810.19 312.522H671.287C664.149 312.522 658.256 306.945 657.866 299.821L653.738 224.355C653.317 216.659 659.448 210.188 667.16 210.188H811.808C819.344 210.188 825.408 216.379 825.246 223.91Z" fill="#3F3D56"/>
</g>
<defs>
<clipPath id="clip0_33_41">
<rect width="875" height="447" fill="white"/>
</clipPath>
</defs>
</svg>
