<svg width="557" height="401" viewBox="0 0 557 401" fill="none" xmlns="http://www.w3.org/2000/svg">
<g clip-path="url(#clip0_82_160)">
<path d="M52.335 400.349C56.201 400.349 59.335 397.215 59.335 393.349C59.335 389.483 56.201 386.349 52.335 386.349C48.469 386.349 45.335 389.483 45.335 393.349C45.335 397.215 48.469 400.349 52.335 400.349Z" fill="#3F3D56"/>
<path d="M36.5358 191.666C37.1222 189.683 38.1078 187.997 39.2725 186.799L43.6654 167.557L52.7604 169.916L47.325 189.181C47.6509 190.819 47.561 192.77 46.9746 194.753C45.635 199.283 42.2123 202.264 39.3297 201.411C36.4471 200.559 35.1962 196.196 36.5358 191.666Z" fill="#FFB6B6"/>
<path d="M124.072 378.759L115.464 378.962L110.666 340.291L123.369 339.991L124.072 378.759Z" fill="#FFB6B6"/>
<path d="M94.5401 396.716C94.5401 398.171 95.572 399.349 96.845 399.349H113.93C113.93 399.349 115.612 392.591 122.467 389.682L122.94 399.349H131.753L130.686 383.805C130.686 383.805 133.043 375.489 128.147 371.238C123.25 366.987 127.216 367.579 127.216 367.579L125.29 357.958L111.972 359.524L111.874 374.626L105.41 389.617L95.9302 394.3C95.0864 394.717 94.5401 395.666 94.5401 396.716Z" fill="#2F2E41"/>
<path d="M67.4659 368.65L58.8583 368.853L54.0603 330.183L66.7629 329.882L67.4659 368.65Z" fill="#FFB6B6"/>
<path d="M37.9345 386.608C37.9345 388.062 38.9664 389.241 40.2393 389.241H57.3246C57.3246 389.241 59.0059 382.483 65.861 379.574L66.3341 389.241H75.1478L74.0799 373.697C74.0799 373.697 76.4376 365.381 71.5412 361.13C66.6446 356.879 70.6106 357.471 70.6106 357.471L68.6844 347.85L55.366 349.416L55.2681 364.518L48.8047 379.509L39.3246 384.192C38.4808 384.608 37.9345 385.558 37.9345 386.608Z" fill="#2F2E41"/>
<path d="M121.406 70.4975L90.4076 75.8885C88.272 70.4227 73.9345 33.3397 73.049 27.9881C70.7468 14.0751 81.1201 1.24816 95.1832 0.198671C108.671 -0.807909 116.889 1.71805 118.037 14.5657C118.439 19.0689 122.303 31.1323 123.484 35.4964C130 59.5734 122.964 65.3668 121.406 70.4975Z" fill="#2F2E41"/>
<path d="M70.8652 149.341L68.8435 180.339L49.6381 275.693L50.9858 342.407L68.5066 339.711L73.8976 278.388L104.32 209.316L108.265 352.515L127.134 353.189L140.394 185.021C141.408 172.171 138.04 159.358 130.84 148.667L70.8652 149.341Z" fill="#2F2E41"/>
<path d="M109.95 49.6073H85.2182L79.6256 58.3677L60.0831 66.4542L70.8652 143.276L68.1697 176.296C83.405 181.466 118.762 189.467 144.335 168.349L121.406 127.103L126.797 69.1497L116.352 59.6464L109.95 49.6073Z" fill="#3FC2FF"/>
<path d="M75.2454 64.0956C75.2454 64.0956 63.7895 59.3785 58.3984 68.1389C55.4647 72.9062 49.9367 105.612 45.5068 134.437C41.7962 158.581 38.856 180.002 38.856 180.002L50.6489 181.687L63.8231 134.527L73.8976 98.4633L75.2454 64.0956Z" fill="#3FC2FF"/>
<path d="M96.2674 45.251C106.587 45.251 114.953 36.8852 114.953 26.5653C114.953 16.2455 106.587 7.87956 96.2674 7.87956C85.9475 7.87956 77.5816 16.2455 77.5816 26.5653C77.5816 36.8852 85.9475 45.251 96.2674 45.251Z" fill="#FFB6B6"/>
<path d="M397.601 376.965L406.892 382.063L430.976 348.653L417.264 341.13L397.601 376.965Z" fill="#FFB6B6"/>
<path d="M429.547 394.222C429.569 394.868 428.858 396.524 428.547 397.091C427.592 398.832 425.405 399.469 423.664 398.514L394.892 382.725C393.704 382.073 393.27 380.581 393.922 379.393L394.579 378.195C394.579 378.195 395.132 373.814 400.497 370.985C400.497 370.985 402.232 376.458 410.661 374.002L413.861 371.976L420.815 386.846L426.819 391.172C428.133 392.119 429.492 392.604 429.547 394.222Z" fill="#2F2E41"/>
<path d="M416.665 392.751L427.262 392.75L432.303 351.874L416.662 351.875L416.665 392.751Z" fill="#FFB6B6"/>
<path d="M452.973 392.51C453.303 393.066 453.477 394.86 453.477 395.506C453.477 397.492 451.866 399.103 449.88 399.103H417.061C415.706 399.103 414.607 398.004 414.607 396.649V395.283C414.607 395.283 412.984 391.176 416.326 386.114C416.326 386.114 420.481 390.078 426.688 383.87L428.519 380.554L441.77 390.245L449.114 391.149C450.721 391.347 452.146 391.118 452.973 392.51Z" fill="#2F2E41"/>
<path d="M424.426 169.862L420.032 200.523L414.318 367.982H434.396L456.098 213.664V294.725L410.274 344.396L424.803 354.504L486.016 297.061L497.205 186.709L488.444 170.536L424.426 169.862Z" fill="#2F2E41"/>
<path d="M471.26 48.2054L452.335 47.3494L446.327 56.9658L421.335 69.3494L424.763 143.222L418.024 176.916C418.024 176.916 481.162 199.827 497.335 186.349L492.824 138.505L496.335 70.3494L480.021 62.3568L471.26 48.2054Z" fill="#3FC2FF"/>
<path d="M463.492 43.143C474.302 43.143 483.064 34.3805 483.064 23.5714C483.064 12.7623 474.302 3.99977 463.492 3.99977C452.683 3.99977 443.921 12.7623 443.921 23.5714C443.921 34.3805 452.683 43.143 463.492 43.143Z" fill="#FFB6B6"/>
<path d="M448.021 39.561C449.443 39.6999 449.523 42.4505 450.874 42.864C452.109 43.2422 454.265 41.6221 454.477 39.8612C454.646 38.458 453.458 37.986 451.775 35.0568C450.785 33.3348 452.392 33.7972 452.335 31.3494C452.318 30.6204 449.635 26.1887 451.024 24.2467C451.484 23.604 452.135 22.6931 453.276 22.2949C454.993 21.6957 455.915 22.9216 458.081 23.0456C460.151 23.1641 456.742 25.1241 459.141 23.5873C461.594 22.0163 462.525 17.935 462.511 16.1747C462.496 14.3636 462.093 17.7784 462.511 16.1747C462.721 15.3662 470.933 22.5933 471.335 22.3494C473.921 20.7784 475.221 17.833 478.01 19.544C481.036 21.4006 482.406 20.6605 483.401 20.2179C484.218 19.8544 483.545 12.9114 483.304 11.7852C482.642 8.68716 479.215 7.23858 478.95 7.13083C477.178 6.4114 476.529 6.93683 475.497 6.07985C474.031 4.86275 474.864 3.40824 473.695 2.17622C472.407 0.819257 470.895 3.30426 465.335 3.34937C461.761 3.37836 461.618 1.31464 459.732 1.42552C458.168 1.51751 452.976 1.82283 448.322 5.47929C443.283 9.43744 441.95 14.9063 441.565 16.5896C440.667 20.5232 440.3 27.5355 443.667 31.3033C444.475 32.2067 445.71 33.1623 446.22 35.0568C446.794 37.1932 446.129 39.3489 446.97 39.7111C447.323 39.8629 447.499 39.5099 448.021 39.561Z" fill="#2F2E41"/>
<path d="M0 399.778C0 400.438 0.53003 400.968 1.19006 400.968H555.48C556.14 400.968 556.67 400.438 556.67 399.778C556.67 399.118 556.14 398.588 555.48 398.588H1.19006C0.53003 398.588 0 399.118 0 399.778Z" fill="#CCCCCC"/>
<path d="M421.315 187.349H135.355C124.865 187.349 116.335 195.879 116.335 206.369V380.329C116.335 390.819 124.865 399.349 135.355 399.349H421.315C431.805 399.349 440.335 390.819 440.335 380.329V206.369C440.335 195.879 431.805 187.349 421.315 187.349Z" fill="white"/>
<path d="M421.315 187.349H135.355C124.865 187.349 116.335 195.879 116.335 206.369V380.329C116.335 390.819 124.865 399.349 135.355 399.349H421.315C431.805 399.349 440.335 390.819 440.335 380.329V206.369C440.335 195.879 431.805 187.349 421.315 187.349ZM438.335 322.653C438.335 363.907 404.892 397.349 363.639 397.349H135.355C125.955 397.349 118.335 389.729 118.335 380.329V206.369C118.335 196.969 125.955 189.349 135.355 189.349H421.315C430.715 189.349 438.335 196.969 438.335 206.369V322.653Z" fill="#3F3D56"/>
<path d="M142.395 194.221C141.993 192.192 142.083 190.241 142.558 188.64L137.512 169.559L146.662 167.423L150.796 187.009C151.845 188.308 152.672 190.078 153.073 192.106C153.991 196.74 152.344 200.97 149.396 201.554C146.447 202.137 143.313 198.854 142.395 194.221Z" fill="#FFB6B6"/>
<path d="M114.33 64.7695C114.33 64.7695 125.786 60.0524 131.177 68.8128C136.568 77.5732 150.72 180.676 150.72 180.676L138.927 182.361L115.678 99.1372L114.33 64.7695Z" fill="#3FC2FF"/>
<path d="M396.743 197.26C397.019 195.195 397.736 193.362 398.706 191.988L396.504 147.285L413.24 145.05L407.044 193.102C407.618 194.683 407.828 196.639 407.551 198.704C406.92 203.423 403.988 206.925 401.003 206.526C398.019 206.127 396.111 201.979 396.743 197.26Z" fill="#FFB6B6"/>
<path d="M439.689 71.1289C439.689 71.1289 423.829 65.1389 418.555 70.5683C413.28 75.9977 395.77 136.521 395.77 136.521L397.41 181.597L409.904 179.441L439.689 71.1289Z" fill="#3FC2FF"/>
<path d="M245.365 358.036H217.305C215.895 358.036 214.745 359.186 214.745 360.596C214.745 362.016 215.895 363.166 217.305 363.166H245.365C246.775 363.166 247.925 362.016 247.925 360.596C247.925 359.186 246.775 358.036 245.365 358.036Z" fill="#E6E6E6"/>
<path d="M292.365 358.036H264.305C262.895 358.036 261.745 359.186 261.745 360.596C261.745 362.016 262.895 363.166 264.305 363.166H292.365C293.775 363.166 294.925 362.016 294.925 360.596C294.925 359.186 293.775 358.036 292.365 358.036Z" fill="#E6E6E6"/>
<path d="M339.365 358.036H311.305C309.895 358.036 308.745 359.186 308.745 360.596C308.745 362.016 309.895 363.166 311.305 363.166H339.365C340.775 363.166 341.925 362.016 341.925 360.596C341.925 359.186 340.775 358.036 339.365 358.036Z" fill="#E6E6E6"/>
<path d="M452.835 94.3494C452.835 89.1111 457.097 84.8494 462.335 84.8494C467.573 84.8494 471.835 89.1111 471.835 94.3494C471.835 99.5876 467.573 103.849 462.335 103.849C457.097 103.849 452.835 99.5876 452.835 94.3494ZM453.835 94.3494C453.835 99.0359 457.648 102.849 462.335 102.849C467.022 102.849 470.835 99.0359 470.835 94.3494C470.835 89.6628 467.022 85.8494 462.335 85.8494C457.648 85.8494 453.835 89.6628 453.835 94.3494Z" fill="#3F3D56"/>
<path d="M462.335 99.3494C465.096 99.3494 467.335 97.1108 467.335 94.3494C467.335 91.5879 465.096 89.3494 462.335 89.3494C459.574 89.3494 457.335 91.5879 457.335 94.3494C457.335 97.1108 459.574 99.3494 462.335 99.3494Z" fill="#3F3D56"/>
<path d="M473.644 102.077C474.953 103.678 475.791 105.442 476.126 107.079L510.037 135.771L500.228 149.467L469.624 112.393C468.086 111.74 466.525 110.568 465.216 108.967C462.227 105.309 461.69 100.802 464.017 98.8997C466.345 96.9973 470.655 98.4201 473.644 102.077Z" fill="#FFB6B6"/>
<path d="M487.096 70.7803C487.096 70.7803 496.531 66.0632 501.922 74.1497C507.313 82.2362 512.799 124.042 512.799 124.042C512.799 124.042 519.443 152.993 506.639 152.319C493.835 151.646 470.335 115.484 470.335 115.484L479.335 107.484L480.358 97.7354L487.096 70.7803Z" fill="#3FC2FF"/>
<path d="M93.977 3.17262C86.3763 4.51005 79.0109 8.6252 75.0677 15.2592C71.1245 21.8931 63.8996 31.1363 69.1377 36.8038C70.9481 38.7627 73.2546 40.2456 74.8832 42.3581C77.6545 45.9528 78.0548 51.0035 76.6728 55.3271C75.2909 59.6506 72.3272 63.3167 68.9365 66.3343C76.1943 65.5855 82.8178 60.4294 85.3243 53.5771C86.4841 50.4063 86.7202 46.6027 84.7355 43.8713C83.6918 42.4347 82.1544 41.4527 80.8286 40.2715C77.4092 37.2249 79.6052 32.6229 79.6256 28.0432C79.6459 23.4635 80.2225 20.2773 83.6688 17.2612C86.0423 19.1581 93.9125 18.7001 96.9116 18.2135C99.9107 17.7268 108.298 29.2455 109.95 26.6954C113.184 30.8522 110.971 22.2865 110.364 27.5179C109.93 31.2604 107.472 34.4887 106.732 38.1828C106.087 41.3974 106.791 44.7426 107.924 47.8195C110.479 54.7601 115.268 60.8582 121.406 64.9846C117.862 59.9725 114.168 54.4951 114.284 48.3579C114.371 43.8058 122.069 34.4104 123.428 30.0648C126.027 21.7495 120.874 12.5348 115.341 5.80526C110.482 -0.104593 101.089 1.72159 93.6411 3.47124" fill="#2F2E41"/>
<path opacity="0.7" d="M337.929 277.751C342.474 281.739 336.969 289.621 335.194 295.076C332.429 303.576 323.702 308.632 314.9 307.077C308.083 305.872 301.222 305.02 294.319 304.531C286.959 304.011 279.559 303.901 272.099 304.201C264.349 304.511 256.549 305.281 248.679 306.511L248.547 306.531C239.516 307.937 230.86 302.512 228.25 293.752C226.74 288.683 222.044 281.729 225.929 277.751C237.92 265.473 231.548 261.369 230.138 256.419C227.927 248.66 240.789 244.412 248.816 245.23C249.15 245.264 249.485 245.298 249.819 245.331C261.669 246.501 273.519 246.961 285.369 246.711C288.349 246.661 291.339 246.551 294.319 246.401C301.079 246.068 307.834 245.505 314.591 244.709C322.442 243.785 336.219 247.941 333.229 255.259C330.149 262.8 329.81 270.626 337.929 277.751Z" fill="#3FC2FF"/>
<path opacity="0.7" d="M294.319 246.401V304.531C286.959 304.011 279.559 303.901 272.099 304.201C264.349 304.511 256.549 305.281 248.679 306.511C249.729 296.781 249.059 286.881 256.569 283.251C265.859 278.751 257.609 260.581 249.819 245.331C261.669 246.501 273.519 246.961 285.369 246.711C288.349 246.661 291.339 246.551 294.319 246.401Z" fill="#3F3D56"/>
<path opacity="0.7" d="M337.929 277.751C342.388 281.835 336.969 289.621 335.194 295.076C332.429 303.576 323.702 308.632 314.9 307.077C308.083 305.872 301.222 305.02 294.319 304.531C286.959 304.011 279.559 303.901 272.099 304.201C265.119 295.191 262.449 286.921 268.869 281.711C276.139 275.821 278.669 261.341 285.369 246.711C288.349 246.661 291.339 246.551 294.319 246.401C301.079 246.068 307.834 245.505 314.591 244.709C322.442 243.785 336.556 248.088 333.229 255.259C329.932 262.368 329.522 270.051 337.929 277.751Z" fill="#FF6884"/>
<path d="M269.609 293.485H241.549C240.139 293.485 238.989 294.635 238.989 296.045C238.989 297.465 240.139 298.615 241.549 298.615H269.609C271.019 298.615 272.169 297.465 272.169 296.045C272.169 294.635 271.019 293.485 269.609 293.485Z" fill="#3F3D56"/>
<path d="M319.609 275.485H291.549C290.139 275.485 288.989 276.635 288.989 278.045C288.989 279.465 290.139 280.615 291.549 280.615H319.609C321.019 280.615 322.169 279.465 322.169 278.045C322.169 276.635 321.019 275.485 319.609 275.485Z" fill="#3F3D56"/>
<path d="M280.609 258.485H252.549C251.139 258.485 249.989 259.635 249.989 261.045C249.989 262.465 251.139 263.615 252.549 263.615H280.609C282.019 263.615 283.169 262.465 283.169 261.045C283.169 259.635 282.019 258.485 280.609 258.485Z" fill="#3F3D56"/>
<path d="M241.725 289.311H137.716V290.311H241.725V289.311Z" fill="#3F3D56"/>
<path d="M158.725 299.164C153.487 299.164 149.225 294.903 149.225 289.664C149.225 284.426 153.487 280.164 158.725 280.164C163.964 280.164 168.225 284.426 168.225 289.664C168.225 294.903 163.964 299.164 158.725 299.164ZM158.725 281.164C154.038 281.164 150.225 284.978 150.225 289.664C150.225 294.351 154.038 298.164 158.725 298.164C163.412 298.164 167.225 294.351 167.225 289.664C167.225 284.978 163.412 281.164 158.725 281.164Z" fill="#3F3D56"/>
<path d="M158.725 294.664C161.487 294.664 163.725 292.426 163.725 289.664C163.725 286.903 161.487 284.664 158.725 284.664C155.964 284.664 153.725 286.903 153.725 289.664C153.725 292.426 155.964 294.664 158.725 294.664Z" fill="#3FC2FF"/>
<path d="M410.954 284.311H306.945V285.311H410.954V284.311Z" fill="#3F3D56"/>
<path d="M380.445 284.664C380.445 279.426 384.706 275.164 389.945 275.164C395.183 275.164 399.445 279.426 399.445 284.664C399.445 289.903 395.183 294.164 389.945 294.164C384.706 294.164 380.445 289.903 380.445 284.664ZM381.445 284.664C381.445 289.351 385.258 293.164 389.945 293.164C394.632 293.164 398.445 289.351 398.445 284.664C398.445 279.978 394.632 276.164 389.945 276.164C385.258 276.164 381.445 279.978 381.445 284.664Z" fill="#3F3D56"/>
<path d="M389.945 289.664C392.706 289.664 394.945 287.426 394.945 284.664C394.945 281.903 392.706 279.664 389.945 279.664C387.183 279.664 384.945 281.903 384.945 284.664C384.945 287.426 387.183 289.664 389.945 289.664Z" fill="#FF6884"/>
<path d="M270.725 253.311H166.716V254.311H270.725V253.311Z" fill="#3F3D56"/>
<path d="M187.725 263.164C182.487 263.164 178.225 258.903 178.225 253.664C178.225 248.426 182.487 244.164 187.725 244.164C192.964 244.164 197.225 248.426 197.225 253.664C197.225 258.903 192.964 263.164 187.725 263.164ZM187.725 245.164C183.038 245.164 179.225 248.978 179.225 253.664C179.225 258.351 183.038 262.164 187.725 262.164C192.412 262.164 196.225 258.351 196.225 253.664C196.225 248.978 192.412 245.164 187.725 245.164Z" fill="#3F3D56"/>
<path d="M187.725 258.664C190.487 258.664 192.725 256.426 192.725 253.664C192.725 250.903 190.487 248.664 187.725 248.664C184.964 248.664 182.725 250.903 182.725 253.664C182.725 256.426 184.964 258.664 187.725 258.664Z" fill="#3F3D56"/>
</g>
<defs>
<clipPath id="clip0_82_160">
<rect width="556.67" height="400.968" fill="white"/>
</clipPath>
</defs>
</svg>
