<svg width="652" height="386" viewBox="0 0 652 386" fill="none" xmlns="http://www.w3.org/2000/svg">
<g clip-path="url(#clip0_35_95)">
<path d="M203.432 227.809V21.0788C203.432 10.1934 212.272 1.33765 223.138 1.33765H632.294C643.16 1.33765 652 10.1934 652 21.0788V227.809C652 238.694 643.16 247.551 632.294 247.551H223.138C212.272 247.551 203.432 238.694 203.432 227.809ZM650.002 21.0788C650.002 11.2816 642.074 3.33938 632.295 3.33938H223.138C213.358 3.33938 205.43 11.2818 205.43 21.0793V227.809C205.43 237.606 213.358 245.549 223.138 245.549H501.44C583.488 245.549 650.002 178.914 650.002 96.7153L650.002 21.0788Z" fill="#E6E6E6"/>
<path d="M347.58 38.941H118.267C111.468 38.941 105.939 44.4801 105.939 51.292V135.684C105.939 142.496 111.468 148.035 118.267 148.035H347.58C354.379 148.035 359.908 142.496 359.908 135.684V51.292C359.908 44.4801 354.379 38.941 347.58 38.941Z" fill="white"/>
<path d="M347.58 38.941H118.267C111.468 38.941 105.939 44.4801 105.939 51.292V135.684C105.939 142.496 111.468 148.035 118.267 148.035H347.58C354.379 148.035 359.908 142.496 359.908 135.684V51.292C359.908 44.4801 354.379 38.941 347.58 38.941ZM358.612 135.684C358.612 141.782 353.666 146.737 347.58 146.737H118.267C112.181 146.737 107.235 141.782 107.235 135.684V51.292C107.235 45.1945 112.181 40.2398 118.267 40.2398H347.58C353.666 40.2398 358.612 45.1945 358.612 51.292V135.684Z" fill="#3F3D56"/>
<path d="M129.004 77.4033H332.808C334.739 77.4033 336.304 78.9717 336.304 80.9063C336.304 82.841 334.739 84.4094 332.808 84.4094H129.004C127.073 84.4094 125.507 82.841 125.507 80.9063C125.507 78.9717 127.073 77.4033 129.004 77.4033Z" fill="#3FC2FF"/>
<path d="M129.004 100.423H202.933C204.864 100.423 206.429 101.992 206.429 103.926C206.429 105.861 204.864 107.429 202.933 107.429H129.004C127.073 107.429 125.507 105.861 125.507 103.926C125.507 101.992 127.073 100.423 129.004 100.423Z" fill="#3FC2FF"/>
<path d="M574.028 66.7011H434.163C431.959 66.7011 430.167 64.9052 430.167 62.6977C430.167 60.4902 431.959 58.6942 434.163 58.6942H574.028C576.231 58.6942 578.024 60.4902 578.024 62.6977C578.024 64.9052 576.231 66.7011 574.028 66.7011Z" fill="#E6E6E6"/>
<path d="M600.543 153.524H405.65V152.523C469.82 162.383 534.85 161.572 600.543 152.523V153.524Z" fill="#E6E6E6"/>
<path d="M574.028 117.745H434.163C431.959 117.745 430.167 115.949 430.167 113.742C430.167 111.534 431.959 109.738 434.163 109.738H574.028C576.231 109.738 578.024 111.534 578.024 113.742C578.024 115.949 576.231 117.745 574.028 117.745Z" fill="#E6E6E6"/>
<path d="M601.542 166.536H406.649V167.536H601.542V166.536Z" fill="#E6E6E6"/>
<path d="M574.028 91.4155H434.163C431.959 91.4155 430.167 89.6195 430.167 87.412C430.167 85.2046 431.959 83.4086 434.163 83.4086H574.028C576.231 83.4086 578.024 85.2046 578.024 87.412C578.024 89.6195 576.231 91.4155 574.028 91.4155Z" fill="#E6E6E6"/>
<path d="M601.542 180.548C534.27 175.963 468.938 175.233 406.649 180.548V179.547H601.542V180.548Z" fill="#E6E6E6"/>
<path d="M332.572 164.261L324.35 160.359C327.723 165.073 330.628 172.437 332.184 178.297C334.818 172.838 339.064 166.16 343.267 162.171L334.577 164.41C339.932 138.12 360.072 119.246 383.135 119.246V117.244C359.045 117.244 338.04 136.908 332.572 164.261Z" fill="#3F3D56"/>
<path d="M370.415 204.319H318.465C316.262 204.319 314.469 202.523 314.469 200.316C314.469 198.108 316.262 196.312 318.465 196.312H370.415C372.619 196.312 374.411 198.108 374.411 200.316C374.411 202.523 372.619 204.319 370.415 204.319Z" fill="#3FC2FF"/>
<path d="M237.4 117.438C245.124 117.438 251.386 111.165 251.386 103.426C251.386 95.6873 245.124 89.4138 237.4 89.4138C229.675 89.4138 223.413 95.6873 223.413 103.426C223.413 111.165 229.675 117.438 237.4 117.438Z" fill="#3FC2FF"/>
<path d="M244.675 95.2211C244.008 94.8305 242.99 95.033 242.624 95.7597C240.962 99.0591 239.299 102.359 237.637 105.658C236.296 103.553 234.58 101.716 232.59 100.175C231.949 99.6791 230.911 100.077 230.54 100.714C230.087 101.489 230.435 102.27 231.077 102.768C233.398 104.564 235.188 106.978 236.393 109.643C236.851 110.655 238.503 110.592 238.981 109.643C241.058 105.52 243.135 101.398 245.212 97.2751C245.577 96.5516 245.403 95.6479 244.675 95.2211Z" fill="white"/>
<path d="M405.238 76.4025C412.962 76.4025 419.224 70.1291 419.224 62.3904C419.224 54.6517 412.962 48.3783 405.238 48.3783C397.513 48.3783 391.251 54.6517 391.251 62.3904C391.251 70.1291 397.513 76.4025 405.238 76.4025Z" fill="#3FC2FF"/>
<path d="M412.513 54.1855C411.846 53.795 410.829 53.9975 410.462 54.7241C408.8 58.0236 407.138 61.323 405.475 64.6225C404.134 62.5177 402.418 60.68 400.428 59.1396C399.787 58.6435 398.749 59.0419 398.378 59.6782C397.925 60.4538 398.273 61.235 398.915 61.7323C401.236 63.5285 403.026 65.9427 404.231 68.6071C404.689 69.62 406.341 69.556 406.819 68.6071C408.896 64.4845 410.973 60.3621 413.05 56.2396C413.415 55.5161 413.241 54.6124 412.513 54.1855Z" fill="white"/>
<path d="M606.044 99.4224C613.769 99.4224 620.031 93.149 620.031 85.4103C620.031 77.6716 613.769 71.3982 606.044 71.3982C598.32 71.3982 592.058 77.6716 592.058 85.4103C592.058 93.149 598.32 99.4224 606.044 99.4224Z" fill="#3FC2FF"/>
<path d="M613.319 77.2054C612.653 76.8149 611.635 77.0174 611.269 77.744C609.606 81.0435 607.944 84.3429 606.281 87.6424C604.94 85.5376 603.225 83.6999 601.234 82.1595C600.593 81.6634 599.556 82.0618 599.184 82.6981C598.731 83.4737 599.079 84.2549 599.722 84.7522C602.043 86.5484 603.832 88.9626 605.037 91.627C605.495 92.6399 607.147 92.5759 607.625 91.627C609.702 87.5044 611.78 83.382 613.857 79.2595C614.221 78.536 614.048 77.6323 613.319 77.2054Z" fill="white"/>
<path d="M292.562 173.067H258.873C256.782 173.067 255.08 171.362 255.08 169.266C250.626 156.223 250.714 143.443 255.08 130.91C255.08 128.815 256.782 127.11 258.873 127.11H292.562C294.654 127.11 296.356 128.815 296.356 130.91V169.266C296.356 171.362 294.654 173.067 292.562 173.067Z" fill="#E6E6E6"/>
<path d="M266.091 128.242C260.634 128.242 256.21 132.674 256.21 138.141V168.453C256.21 170.376 257.766 171.934 259.686 171.934H278.316C287.655 171.934 295.225 164.35 295.225 154.994V131.724C295.225 129.801 293.669 128.242 291.75 128.242H266.091Z" fill="white"/>
<path d="M283.564 139.389H267.791C267.393 139.389 267.07 139.065 267.07 138.666C267.07 138.268 267.393 137.944 267.791 137.944H283.564C283.961 137.944 284.285 138.268 284.285 138.666C284.285 139.065 283.961 139.389 283.564 139.389Z" fill="#E6E6E6"/>
<path d="M283.564 154.795H267.791C267.393 154.795 267.07 154.47 267.07 154.072C267.07 153.674 267.393 153.35 267.791 153.35H283.564C283.961 153.35 284.285 153.674 284.285 154.072C284.285 154.47 283.961 154.795 283.564 154.795Z" fill="#E6E6E6"/>
<path d="M292.027 147.097H259.327C258.929 147.097 258.606 146.773 258.606 146.374C258.606 145.976 258.929 145.652 259.327 145.652H292.027C292.425 145.652 292.748 145.976 292.748 146.374C292.748 146.773 292.425 147.097 292.027 147.097Z" fill="#E6E6E6"/>
<path d="M292.413 161.059H278.768C278.371 161.059 278.047 160.734 278.047 160.336C278.047 159.938 278.371 159.614 278.768 159.614H292.413C292.811 159.614 293.134 159.938 293.134 160.336C293.134 160.734 292.811 161.059 292.413 161.059Z" fill="#E6E6E6"/>
<path d="M60.4584 68.1299C61.3458 64.03 61.6065 67.0502 63.5366 63.3314C62.2118 68.137 64.6564 66.5634 67.9038 70.3315C90.7249 73.9163 92.1629 66.0859 100.608 66.3258L100.652 66.3255C102.51 66.2953 103.465 64.066 102.344 62.5803C99.5781 58.9118 96.5286 53.2511 99.4146 49.6874C104.527 43.3739 100.022 30.4272 97.8181 33.2262C97.8181 22.4298 84.5467 15.3497 79.3986 17.1039C69.8861 20.3452 61.0768 24.7169 60.0099 34.4986C59.8433 36.0259 59.6278 37.5445 59.3539 39.0562C58.7978 42.1263 56.5068 42.9416 57.2952 45.9567L59.7606 48.4691C60.9176 52.8937 60.5521 57.5389 58.9671 61.8284C58.091 64.1995 57.9695 66.2325 60.4584 68.1299Z" fill="#2F2E41"/>
<path d="M84.2171 53.6427C92.1174 53.6427 98.5219 47.2265 98.5219 39.3118C98.5219 31.397 92.1174 24.9808 84.2171 24.9808C76.3168 24.9808 69.9124 31.397 69.9124 39.3118C69.9124 47.2265 76.3168 53.6427 84.2171 53.6427Z" fill="#A0616A"/>
<path d="M61.9336 366.013L69.3003 366.188L73.4066 333.031L62.5352 332.773L61.9336 366.013Z" fill="#A0616A"/>
<path d="M87.2079 381.411C87.2079 382.658 86.3247 383.668 85.2353 383.668H70.613C70.613 383.668 69.174 377.873 63.3072 375.38L62.9023 383.668H55.3591L56.2731 370.341C56.2731 370.341 54.2552 363.21 58.4458 359.565C62.6365 355.92 59.2422 356.428 59.2422 356.428L60.8907 348.179L72.2892 349.522L72.373 362.471L77.9047 375.323L86.0182 379.339C86.7403 379.696 87.2079 380.51 87.2079 381.411Z" fill="#2F2E41"/>
<path d="M70.0354 335.932L75.8867 340.419L98.6963 316.045L90.0616 309.423L70.0354 335.932Z" fill="#A0616A"/>
<path d="M81.4107 363.288C80.6778 364.295 79.3699 364.591 78.4894 363.948L66.6718 355.321C66.6718 355.321 68.9153 349.789 65.6397 344.312L60.4401 350.772L54.3438 346.322L62.917 336.089C62.917 336.089 65.4778 329.136 71.0072 328.663C76.5366 328.19 73.4952 326.597 73.4952 326.597L79.6765 320.903L88.0993 328.713L80.5552 339.228L77.4703 352.879L81.6673 360.911C82.0408 361.626 81.94 362.56 81.4107 363.288Z" fill="#2F2E41"/>
<path d="M48.9557 196.479C49.3999 198.303 48.5818 206.794 49.0392 209.716C50.2023 217.144 60.8292 257.644 58.996 269.189C52.2791 311.492 61.5689 338.629 61.5689 338.629H76.5545L84.5468 210.518L92.3471 220.82L107.61 266.491L80.6104 315.124L94.7084 326.789L136.802 259.739L106.89 147.579L105.083 140.807L64.669 139.677L66.9176 143.053L61.8021 148.116C61.8021 148.116 61.7953 148.13 61.7682 148.157C60.9801 149.26 43.4666 173.945 48.9557 196.479Z" fill="#2F2E41"/>
<path d="M61.7681 148.157C66.4488 149.831 98.079 148.103 106.89 147.579L105.083 140.807L64.6689 139.677L66.9175 143.053L61.802 148.116C61.802 148.116 61.7952 148.13 61.7681 148.157Z" fill="#A0616A"/>
<path d="M114.079 93.9241L112.623 101.662L112.27 103.518L104.528 119.44L105.545 142.78C106.197 145.512 78.7042 139.313 64.4221 145.717L53.3049 92.4511L64.5775 67.9006L73.3995 62.9905L74.8699 57.0984H93.5579C94.5532 61.7679 93.4743 64.0688 91.5402 65.393L96.2215 77.9005L114.079 93.9241Z" fill="#3FC2FF"/>
<path d="M128.696 48.2805C128.465 50.2845 127.801 52.0699 126.884 53.416L125.884 72.6458L116.764 71.9014L118.76 52.4749C118.174 50.9546 117.934 49.0645 118.166 47.0605C118.694 42.4825 121.48 39.0444 124.388 39.3813C127.296 39.7182 129.225 43.7025 128.696 48.2805Z" fill="#A0616A"/>
<path d="M92.3484 68.4892L93.5382 71.3982C93.5382 71.3982 76.1547 69.6535 76.5259 78.7463C76.8426 86.5045 109.563 117.251 111.127 117.969C115.757 120.095 121.139 117.234 121.977 112.2C129.345 93.1567 130.872 75.9875 127.505 60.3887H117.515L114.262 72.6943L114.079 82.0547L108.811 93.3128L91.5401 71.3982L92.3484 68.4892Z" fill="#3FC2FF"/>
<path d="M34.4312 175.375C35.0735 173.415 35.2205 171.471 34.9443 169.827L42.2408 151.536L33.4514 148.312L26.9961 167.214C25.8011 168.374 24.77 170.027 24.1277 171.988C22.6603 176.467 23.7773 180.857 26.6225 181.792C29.4678 182.728 32.9638 179.855 34.4312 175.375Z" fill="#A0616A"/>
<path d="M76.5199 68.4992C76.5199 68.4992 65.7277 64.3994 59.6011 69.409C57.0744 71.475 45.9005 85.7106 44.1793 104.875C44.0444 106.378 43.023 107.67 42.4476 109.075C38.899 117.738 32.79 121.728 30.1923 129.138C29.1772 132.033 31.0391 139.522 30.3977 142.02C27.0391 155.1 28.251 162.558 28.251 162.558L37.3208 165.583L42.2407 162.099L50.3217 132.536L76.5199 68.4992Z" fill="#3FC2FF"/>
<path d="M157.692 45.9567H124.003C121.912 45.9567 120.21 44.252 120.21 42.1565C115.756 29.1135 115.844 16.3332 120.21 3.80025C120.21 1.70475 121.912 0 124.003 0H157.692C159.784 0 161.486 1.70475 161.486 3.80025V42.1565C161.486 44.252 159.784 45.9567 157.692 45.9567Z" fill="#E6E6E6"/>
<path d="M131.222 1.1322C125.764 1.1322 121.34 5.56429 121.34 11.0315V41.3426C121.34 43.2655 122.896 44.8244 124.816 44.8244H143.446C152.785 44.8244 160.355 37.2398 160.355 27.8837V4.61395C160.355 2.69104 158.799 1.1322 156.88 1.1322H131.222Z" fill="white"/>
<path d="M148.694 12.2787H132.921C132.523 12.2787 132.2 11.9546 132.2 11.5562C132.2 11.1579 132.523 10.8339 132.921 10.8339H148.694C149.091 10.8339 149.415 11.1579 149.415 11.5562C149.415 11.9546 149.091 12.2787 148.694 12.2787Z" fill="#E6E6E6"/>
<path d="M148.694 27.6846H132.921C132.523 27.6846 132.2 27.3605 132.2 26.9621C132.2 26.5637 132.523 26.2397 132.921 26.2397H148.694C149.091 26.2397 149.415 26.5637 149.415 26.9621C149.415 27.3605 149.091 27.6846 148.694 27.6846Z" fill="#E6E6E6"/>
<path d="M157.157 19.9867H124.457C124.059 19.9867 123.736 19.6626 123.736 19.2642C123.736 18.8659 124.059 18.5419 124.457 18.5419H157.157C157.555 18.5419 157.878 18.8659 157.878 19.2642C157.878 19.6626 157.555 19.9867 157.157 19.9867Z" fill="#E6E6E6"/>
<path d="M157.543 33.9487H143.898C143.501 33.9487 143.177 33.6245 143.177 33.2261C143.177 32.8278 143.501 32.5038 143.898 32.5038H157.543C157.941 32.5038 158.264 32.8278 158.264 33.2261C158.264 33.6245 157.941 33.9487 157.543 33.9487Z" fill="#E6E6E6"/>
<path d="M167.39 367.158C169.454 367.287 170.595 364.718 169.033 363.221L168.878 362.602C168.898 362.553 168.919 362.503 168.939 362.454C171.027 357.468 178.101 357.502 180.17 362.496C182.007 366.928 184.345 371.367 184.921 376.053C185.179 378.122 185.063 380.229 184.605 382.259C188.909 372.84 191.174 362.555 191.174 352.212C191.174 349.614 191.032 347.015 190.742 344.423C190.503 342.302 190.174 340.195 189.748 338.107C187.444 326.82 182.456 316.07 175.262 307.09C171.803 305.196 168.919 302.236 167.176 298.687C166.551 297.407 166.06 296.03 165.828 294.627C166.221 294.679 167.312 288.673 167.015 288.305C167.564 287.471 168.545 287.056 169.145 286.243C172.124 282.196 176.229 282.902 178.372 288.402C182.95 290.716 182.994 294.555 180.185 298.247C178.398 300.596 178.152 303.774 176.584 306.289C176.746 306.496 176.914 306.696 177.075 306.903C180.033 310.704 182.592 314.79 184.749 319.082C184.139 314.312 185.039 308.565 186.573 304.86C188.32 300.639 191.593 297.084 194.476 293.435C197.939 289.052 205.039 290.965 205.649 296.521C205.655 296.575 205.661 296.629 205.667 296.683C205.238 296.925 204.819 297.182 204.409 297.453C202.072 299.002 202.88 302.632 205.649 303.06L205.712 303.069C205.557 304.614 205.292 306.147 204.905 307.653C208.603 321.981 200.619 327.2 189.219 327.434C188.967 327.563 188.722 327.693 188.47 327.816C189.625 331.074 190.548 334.416 191.232 337.803C191.845 340.796 192.271 343.821 192.51 346.86C192.806 350.693 192.781 354.546 192.458 358.373L192.477 358.237C193.297 354.022 195.581 350.086 198.898 347.358C203.839 343.291 210.819 341.794 216.149 338.526C218.715 336.952 222.003 338.986 221.555 341.966L221.534 342.108C220.74 342.432 219.966 342.807 219.217 343.227C218.789 343.469 218.369 343.726 217.96 343.997C215.622 345.546 216.43 349.176 219.2 349.604L219.262 349.614C219.307 349.62 219.346 349.627 219.391 349.633C218.03 352.872 216.133 355.878 213.758 358.47C211.446 370.978 201.514 372.165 190.89 368.522H190.884C189.722 373.59 188.025 378.542 185.844 383.261H167.841C167.777 383.061 167.719 382.854 167.66 382.653C169.325 382.757 171.003 382.66 172.642 382.356C171.306 380.714 169.971 379.059 168.635 377.417C168.603 377.385 168.577 377.353 168.551 377.32C167.873 376.48 167.189 375.646 166.512 374.806L166.512 374.805C166.469 372.225 166.778 369.653 167.39 367.158Z" fill="#F2F2F2"/>
<path d="M0 384.809C0 385.47 0.52952 386 1.18891 386H219.269C219.928 386 220.458 385.47 220.458 384.809C220.458 384.148 219.928 383.618 219.269 383.618H1.18891C0.52952 383.618 0 384.148 0 384.809Z" fill="#CCCCCC"/>
<path d="M88.0948 22.3558H85.1826C76.6628 22.3653 62.1003 34.438 67.7352 42.9059C62.9235 55.7641 62.7481 62.4543 64.7907 65.9557C65.5426 67.2446 67.0355 67.8318 68.522 67.7273C68.7202 67.7133 68.9197 67.7091 69.1207 67.7157C70.5608 67.7634 72.4926 74.5456 73.833 75.0671L77.3913 73.9834L83.228 68.1405L80.2664 59.2288L74.5358 54.737L75.3165 44.3342C71.4809 35.5025 75.6538 35.0702 78.0021 32.2213L78.2397 41.3612L81.603 38.1095C84.3425 38.1807 87.544 39.3705 89.6722 36.8956C93.5382 32.3644 97.5459 37.8352 102.112 38.941L103.529 37.8177C103.577 35.2695 103.201 32.8091 102.47 30.6059C102.127 29.5688 101.248 28.7142 101.211 27.6833C101.072 23.8145 93.7738 20.062 88.0948 22.3558Z" fill="#2F2E41"/>
</g>
<defs>
<clipPath id="clip0_35_95">
<rect width="652" height="386" fill="white"/>
</clipPath>
</defs>
</svg>
