<svg width="62" height="62" viewBox="0 0 62 62" fill="none" xmlns="http://www.w3.org/2000/svg">
<circle cx="31" cy="31" r="31" fill="#F4FBFF"/>
<path fill-rule="evenodd" clip-rule="evenodd" d="M30.105 15.1426C29.9536 15.2211 27.6503 17.1474 24.9865 19.4235C21.8203 22.1287 20.1106 23.6731 20.0491 23.8832C19.698 25.0814 21.3033 26.2379 22.5443 25.6811C22.7649 25.5821 24.308 24.3433 25.9733 22.9282C27.6387 21.5131 29.0482 20.3553 29.1056 20.3553C29.1631 20.3553 29.2101 25.8933 29.2101 32.6622C29.2101 46.1756 29.1648 45.4504 30.0317 45.8301C30.5491 46.0566 31.4509 46.0566 31.9683 45.8301C32.8352 45.4504 32.7899 46.1756 32.7899 32.6622C32.7899 25.8933 32.8369 20.3553 32.8944 20.3553C32.9518 20.3553 34.3613 21.5131 36.0267 22.9282C37.692 24.3433 39.2351 25.5821 39.4557 25.6811C40.6967 26.2379 42.302 25.0814 41.9509 23.8832C41.8894 23.6731 40.1797 22.1287 37.0135 19.4235C34.3497 17.1474 32.0464 15.2211 31.895 15.1426C31.7435 15.0641 31.3408 15 31 15C30.6592 15 30.2565 15.0641 30.105 15.1426Z" fill="#3FC2FF"/>
</svg>
