<svg xmlns="http://www.w3.org/2000/svg" version="1.1" xmlnsXlink="http://www.w3.org/1999/xlink" xmlnsSvgjs="http://svgjs.dev/svgjs" width="2000" height="464" viewBox="0 0 2000 464"><g transform="matrix(1,0,0,1,-1.2121212121212466,1.0199060661285273)"><svg viewBox="0 0 396 92" data-background-color="#ffffff" preserveAspectRatio="xMidYMid meet" height="464" width="2000" xmlns="http://www.w3.org/2000/svg" xmlnsXlink="http://www.w3.org/1999/xlink"><g id="tight-bounds" transform="matrix(1,0,0,1,0.2400000000000091,-0.2022227544910038)"><svg viewBox="0 0 395.52 92.40444550898204" height="92.40444550898204" width="395.52"><g><svg viewBox="0 0 395.52 92.40444550898204" height="92.40444550898204" width="395.52"><g><svg viewBox="0 0 395.52 92.40444550898204" height="92.40444550898204" width="395.52"><g id="textblocktransform"><svg viewBox="0 0 395.52 92.40444550898204" height="92.40444550898204" width="395.52" id="textblock"><g><svg viewBox="0 0 395.52 92.40444550898204" height="92.40444550898204" width="395.52"><rect width="395.52" height="92.40444550898204" x="0" y="0" opacity="1" fill="#77d4fc" data-fill-palette-color="tertiary"></rect><g transform="matrix(1,0,0,1,23.607599999999998,23.607599999999998)"><svg width="348.3048" viewBox="1.6 -35.4 275.53 35.75" height="45.18924550898203" data-palette-color="#ffffff"><path d="M1.6-34.9L27.2-34.9 27.2-29.25 17.9-29.25 17.9 0 10.9 0 10.9-29.25 1.6-29.25 1.6-34.9ZM56 0L53.7-6.65 39.8-6.65 37.5 0 30.15 0 42.7-34.95 50.85-34.95 63.4 0 56 0ZM41.7-12.25L51.8-12.25 46.75-26.85 41.7-12.25ZM75.1-34.9L75.1-5.55 86.6-5.55 86.6 0 68.1 0 68.1-34.9 75.1-34.9ZM114.74 0L112.44-6.65 98.54-6.65 96.24 0 88.89 0 101.44-34.95 109.59-34.95 122.14 0 114.74 0ZM100.44-12.25L110.54-12.25 105.49-26.85 100.44-12.25ZM156.69-34.95L156.69 0 149.69 0 133.84-23.95 133.84 0 126.84 0 126.84-34.95 133.84-34.95 149.69-10.95 149.69-34.95 156.69-34.95ZM161.74-34.9L187.34-34.9 187.34-29.25 178.04-29.25 178.04 0 171.04 0 171.04-29.25 161.74-29.25 161.74-34.9ZM192.44-34.9L199.44-34.9 199.44 0 192.44 0 192.44-34.9ZM236.18-34.95L236.18 0 229.18 0 213.33-23.95 213.33 0 206.33 0 206.33-34.95 213.33-34.95 229.18-10.95 229.18-34.95 236.18-34.95ZM259.28 0.35Q254.38 0.35 250.28-1.95 246.18-4.25 243.78-8.33 241.38-12.4 241.38-17.55L241.38-17.55Q241.38-22.65 243.78-26.73 246.18-30.8 250.28-33.1 254.38-35.4 259.28-35.4L259.28-35.4Q264.23-35.4 268.31-33.1 272.38-30.8 274.75-26.73 277.13-22.65 277.13-17.55L277.13-17.55Q277.13-12.4 274.75-8.33 272.38-4.25 268.28-1.95 264.18 0.35 259.28 0.35L259.28 0.35ZM259.28-5.9Q262.43-5.9 264.83-7.33 267.23-8.75 268.58-11.4 269.93-14.05 269.93-17.55L269.93-17.55Q269.93-21.05 268.58-23.68 267.23-26.3 264.83-27.7 262.43-29.1 259.28-29.1L259.28-29.1Q256.13-29.1 253.71-27.7 251.28-26.3 249.93-23.68 248.58-21.05 248.58-17.55L248.58-17.55Q248.58-14.05 249.93-11.4 251.28-8.75 253.71-7.33 256.13-5.9 259.28-5.9L259.28-5.9Z" opacity="1" transform="matrix(1,0,0,1,0,0)" fill="#ffffff" class="undefined-text-0" data-fill-palette-color="quaternary" id="text-0"></path></svg></g></svg></g></svg></g></svg></g><g></g></svg></g><defs></defs></svg><rect width="395.52" height="92.40444550898204" fill="none" stroke="none" visibility="hidden"></rect></g></svg></g></svg>