<svg xmlns="http://www.w3.org/2000/svg" version="1.1" xmlnsXlink="http://www.w3.org/1999/xlink" xmlnsSvgJs="http://svgjs.dev/svgjs" width="1000" height="750" viewBox="0 0 1000 750"><rect width="1000" height="750" fill="#f0f0f0"></rect><g transform="matrix(0.834,0,0,0.834,82.49456018787447,242.09681875173703)"><svg viewBox="0 0 396 126" data-background-color="#f0f0f0" preserveAspectRatio="xMidYMid meet" height="318" width="1000" xmlns="http://www.w3.org/2000/svg" xmlnsXlink="http://www.w3.org/1999/xlink"><g id="tight-bounds" transform="matrix(1,0,0,1,0.2399930153772516,0.14118832210132837)"><svg viewBox="0 0 395.52 125.71762335579734" height="125.71762335579734" width="395.52"><g><svg viewBox="0 0 395.52 125.71762335579734" height="125.71762335579734" width="395.52"><g><svg viewBox="0 0 395.52 125.71762335579734" height="125.71762335579734" width="395.52"><g><svg viewBox="0 0 395.52 125.71762335579734" height="125.71762335579734" width="395.52" id="textblock"><g><svg viewBox="0 0 395.52 67.80607879924952" height="67.80607879924952" width="395.52"><g transform="matrix(1,0,0,1,0,0)"><svg width="395.52" viewBox="0.15000000596046448 -35.650001525878906 213.1800079345703 36.55000305175781" height="67.80607879924952" data-palette-color="#6b7280"><path d="M0.15-34.75L23.05-34.75 22.15-28.1 15.8-28.1 15.8 0 6.95 0 6.95-28.1 0.15-28.1 0.15-34.75ZM49.1 0L40.15 0 38.95-7.25 32.05-7.25 30.9 0 22.05 0 30.35-34.75 40.85-34.75 49.1 0ZM35.5-28.4L33.1-13.55 37.95-13.55 35.5-28.4ZM50.2-34.75L59.05-34.75 59.05-6.9 69.75-6.9 68.84 0 50.2 0 50.2-34.75ZM96.24 0L87.29 0 86.09-7.25 79.19-7.25 78.04 0 69.19 0 77.49-34.75 87.99-34.75 96.24 0ZM82.64-28.4L80.24-13.55 85.09-13.55 82.64-28.4ZM120.84-34.75L120.84 0 110.04 0 103.74-26.85 103.89-25.65Q104.34-22.2 104.61-19.07 104.89-15.95 104.89-12.2L104.89-12.2 104.89 0 97.34 0 97.34-34.75 108.09-34.75 114.44-7.8Q113.89-11.4 113.59-14.53 113.29-17.65 113.29-21.55L113.29-21.55 113.29-34.75 120.84-34.75ZM122.84-34.75L145.74-34.75 144.84-28.1 138.49-28.1 138.49 0 129.64 0 129.64-28.1 122.84-28.1 122.84-34.75ZM147.34-34.75L156.19-34.75 156.19 0 147.34 0 147.34-34.75ZM183.43-34.75L183.43 0 172.63 0 166.33-26.85 166.48-25.65Q166.93-22.2 167.21-19.07 167.48-15.95 167.48-12.2L167.48-12.2 167.48 0 159.93 0 159.93-34.75 170.68-34.75 177.03-7.8Q176.48-11.4 176.18-14.53 175.88-17.65 175.88-21.55L175.88-21.55 175.88-34.75 183.43-34.75ZM199.83-35.65Q206.43-35.65 209.88-31.1 213.33-26.55 213.33-17.4L213.33-17.4Q213.33-8.35 209.88-3.73 206.43 0.9 199.83 0.9L199.83 0.9Q193.23 0.9 189.81-3.68 186.38-8.25 186.38-17.4L186.38-17.4Q186.38-26.4 189.83-31.03 193.28-35.65 199.83-35.65L199.83-35.65ZM199.83-29.25Q198.28-29.25 197.36-28.13 196.43-27 196.01-24.43 195.58-21.85 195.58-17.4L195.58-17.4Q195.58-12.85 196.01-10.25 196.43-7.65 197.36-6.55 198.28-5.45 199.83-5.45L199.83-5.45Q201.48-5.45 202.41-6.55 203.33-7.65 203.73-10.23 204.13-12.8 204.13-17.4L204.13-17.4Q204.13-21.85 203.71-24.43 203.28-27 202.36-28.13 201.43-29.25 199.83-29.25L199.83-29.25Z" opacity="1" transform="matrix(1,0,0,1,0,0)" fill="#6b7280" class="undefined-text-0" data-fill-palette-color="primary" id="text-0"></path></svg></g></svg></g><g transform="matrix(1,0,0,1,0,83.81346665786114)"><svg viewBox="0 0 395.52 41.9041566979362" height="41.9041566979362" width="395.52"><g transform="matrix(1,0,0,1,0,0)"><svg width="395.52" viewBox="4.349999904632568 -36.47999954223633 348.04998779296875 36.880001068115234" height="41.9041566979362" data-palette-color="#6b7280"><path d="M6.85-35.83L6.85-35.83Q7.5-35.83 7.81-35.66 8.13-35.5 8.53-35L8.53-35 29.28-8Q29.2-8.65 29.18-9.26 29.15-9.88 29.15-10.45L29.15-10.45 29.15-35.83 33.4-35.83 33.4 0 30.95 0Q30.38 0 29.99-0.2 29.6-0.4 29.23-0.88L29.23-0.88 8.5-27.85Q8.55-27.23 8.58-26.63 8.6-26.03 8.6-25.53L8.6-25.53 8.6 0 4.35 0 4.35-35.83 6.85-35.83ZM65-25.73L65-25.73Q67.77-25.73 70.01-24.8 72.25-23.88 73.81-22.18 75.37-20.48 76.21-18.06 77.05-15.65 77.05-12.68L77.05-12.68Q77.05-9.68 76.21-7.28 75.37-4.88 73.81-3.18 72.25-1.48 70.01-0.56 67.77 0.35 65 0.35L65 0.35Q62.22 0.35 59.98-0.56 57.75-1.48 56.17-3.18 54.6-4.88 53.75-7.28 52.9-9.68 52.9-12.68L52.9-12.68Q52.9-15.65 53.75-18.06 54.6-20.48 56.17-22.18 57.75-23.88 59.98-24.8 62.22-25.73 65-25.73ZM65-3.13L65-3.13Q68.75-3.13 70.6-5.64 72.45-8.15 72.45-12.65L72.45-12.65Q72.45-17.18 70.6-19.7 68.75-22.23 65-22.23L65-22.23Q63.1-22.23 61.7-21.58 60.3-20.93 59.36-19.7 58.42-18.48 57.96-16.69 57.5-14.9 57.5-12.65L57.5-12.65Q57.5-10.4 57.96-8.63 58.42-6.85 59.36-5.64 60.3-4.42 61.7-3.78 63.1-3.13 65-3.13ZM130.57-13.4L124.82-13.4 124.82 0 119.99 0 119.99-35.83 130.57-35.83Q133.97-35.83 136.48-35.04 138.99-34.25 140.64-32.8 142.29-31.35 143.1-29.3 143.92-27.25 143.92-24.73L143.92-24.73Q143.92-22.23 143.04-20.15 142.17-18.07 140.48-16.57 138.79-15.08 136.29-14.24 133.79-13.4 130.57-13.4L130.57-13.4ZM124.82-32L124.82-17.25 130.57-17.25Q132.64-17.25 134.23-17.8 135.82-18.35 136.89-19.34 137.97-20.33 138.52-21.7 139.07-23.08 139.07-24.73L139.07-24.73Q139.07-28.15 136.95-30.08 134.84-32 130.57-32L130.57-32 124.82-32ZM163.14-25.33L167.59-25.33 167.59 0 163.14 0 163.14-25.33ZM168.59-33.27L168.59-33.27Q168.59-32.63 168.33-32.06 168.06-31.5 167.63-31.06 167.19-30.63 166.61-30.38 166.04-30.13 165.39-30.13L165.39-30.13Q164.74-30.13 164.18-30.38 163.61-30.63 163.18-31.06 162.74-31.5 162.49-32.06 162.24-32.63 162.24-33.27L162.24-33.27Q162.24-33.93 162.49-34.51 162.74-35.1 163.18-35.54 163.61-35.98 164.18-36.23 164.74-36.48 165.39-36.48L165.39-36.48Q166.04-36.48 166.61-36.23 167.19-35.98 167.63-35.54 168.06-35.1 168.33-34.51 168.59-33.93 168.59-33.27ZM207.19-22.43L206.01-20.83Q205.81-20.55 205.61-20.4 205.41-20.25 205.04-20.25L205.04-20.25Q204.66-20.25 204.22-20.56 203.79-20.88 203.11-21.25 202.44-21.63 201.47-21.94 200.51-22.25 199.11-22.25L199.11-22.25Q197.26-22.25 195.84-21.59 194.41-20.93 193.45-19.68 192.49-18.43 192-16.65 191.51-14.88 191.51-12.68L191.51-12.68Q191.51-10.38 192.04-8.59 192.56-6.8 193.51-5.59 194.46-4.38 195.82-3.74 197.19-3.1 198.89-3.1L198.89-3.1Q200.51-3.1 201.56-3.49 202.61-3.88 203.31-4.35 204.01-4.83 204.46-5.21 204.91-5.6 205.36-5.6L205.36-5.6Q205.94-5.6 206.21-5.18L206.21-5.18 207.46-3.55Q205.81-1.53 203.34-0.59 200.86 0.35 198.11 0.35L198.11 0.35Q195.74 0.35 193.7-0.53 191.66-1.4 190.16-3.06 188.66-4.73 187.8-7.15 186.94-9.58 186.94-12.68L186.94-12.68Q186.94-15.5 187.72-17.9 188.51-20.3 190.02-22.04 191.54-23.78 193.76-24.75 195.99-25.73 198.86-25.73L198.86-25.73Q201.51-25.73 203.56-24.86 205.61-24 207.19-22.43L207.19-22.43ZM233.06 0.4L233.06 0.4Q230.06 0.4 228.45-1.28 226.83-2.95 226.83-6.1L226.83-6.1 226.83-21.6 223.78-21.6Q223.38-21.6 223.11-21.84 222.83-22.08 222.83-22.58L222.83-22.58 222.83-24.35 226.98-24.88 228.01-32.7Q228.06-33.08 228.33-33.31 228.61-33.55 229.03-33.55L229.03-33.55 231.28-33.55 231.28-24.83 238.53-24.83 238.53-21.6 231.28-21.6 231.28-6.4Q231.28-4.8 232.06-4.03 232.83-3.25 234.06-3.25L234.06-3.25Q234.76-3.25 235.27-3.44 235.78-3.63 236.16-3.85 236.53-4.08 236.8-4.26 237.06-4.45 237.26-4.45L237.26-4.45Q237.61-4.45 237.88-4.03L237.88-4.03 239.18-1.9Q238.03-0.83 236.41-0.21 234.78 0.4 233.06 0.4ZM256.73-25.33L261.18-25.33 261.18-9.18Q261.18-6.3 262.51-4.73 263.83-3.15 266.51-3.15L266.51-3.15Q268.46-3.15 270.18-4.08 271.91-5 273.36-6.65L273.36-6.65 273.36-25.33 277.81-25.33 277.81 0 275.16 0Q274.21 0 273.96-0.93L273.96-0.93 273.61-3.65Q271.96-1.83 269.91-0.71 267.86 0.4 265.21 0.4L265.21 0.4Q263.13 0.4 261.54-0.29 259.96-0.98 258.88-2.23 257.81-3.48 257.27-5.25 256.73-7.03 256.73-9.18L256.73-9.18 256.73-25.33ZM302.88 0L298.43 0 298.43-25.33 300.98-25.33Q301.7-25.33 301.98-25.05 302.25-24.78 302.35-24.1L302.35-24.1 302.65-20.15Q303.95-22.8 305.87-24.29 307.78-25.78 310.35-25.78L310.35-25.78Q311.4-25.78 312.25-25.54 313.1-25.3 313.83-24.88L313.83-24.88 313.25-21.55Q313.08-20.93 312.48-20.93L312.48-20.93Q312.13-20.93 311.4-21.16 310.68-21.4 309.38-21.4L309.38-21.4Q307.05-21.4 305.49-20.05 303.93-18.7 302.88-16.13L302.88-16.13 302.88 0ZM341.9-25.73L341.9-25.73Q344.18-25.73 346.1-24.96 348.03-24.2 349.43-22.76 350.83-21.33 351.61-19.21 352.4-17.1 352.4-14.4L352.4-14.4Q352.4-13.35 352.18-13 351.95-12.65 351.33-12.65L351.33-12.65 334.48-12.65Q334.53-10.25 335.13-8.47 335.73-6.7 336.78-5.51 337.83-4.33 339.28-3.74 340.73-3.15 342.53-3.15L342.53-3.15Q344.2-3.15 345.41-3.54 346.63-3.93 347.5-4.38 348.38-4.83 348.96-5.21 349.55-5.6 349.98-5.6L349.98-5.6Q350.53-5.6 350.83-5.18L350.83-5.18 352.08-3.55Q351.25-2.55 350.1-1.81 348.95-1.07 347.64-0.6 346.33-0.13 344.93 0.11 343.53 0.35 342.15 0.35L342.15 0.35Q339.53 0.35 337.31-0.54 335.1-1.43 333.49-3.14 331.88-4.85 330.98-7.38 330.08-9.9 330.08-13.18L330.08-13.18Q330.08-15.83 330.89-18.13 331.7-20.43 333.23-22.11 334.75-23.8 336.95-24.76 339.15-25.73 341.9-25.73ZM342-22.45L342-22.45Q338.78-22.45 336.93-20.59 335.08-18.73 334.63-15.43L334.63-15.43 348.4-15.43Q348.4-16.98 347.98-18.26 347.55-19.55 346.73-20.49 345.9-21.43 344.71-21.94 343.53-22.45 342-22.45Z" opacity="1" transform="matrix(1,0,0,1,0,0)" fill="#6b7280" class="undefined-text-1" data-fill-palette-color="secondary" id="text-1"></path></svg></g></svg></g></svg></g></svg></g><g></g></svg></g><defs></defs></svg><rect width="395.52" height="125.71762335579734" fill="none" stroke="none" visibility="hidden"></rect></g></svg></g></svg>